<svg width="2059" height="461" viewBox="0 0 2059 461" fill="none" xmlns="http://www.w3.org/2000/svg">
<path d="M926.5 103L937.034 97.2526L926.5 77.9451L915.966 97.2526L926.5 103ZM753 421L742.466 415.253L732.783 433H753V421ZM1100 421V433H1120.22L1110.53 415.253L1100 421ZM818.782 382.11L808.232 376.393C806.217 380.111 806.308 384.616 808.472 388.25C810.636 391.884 814.553 394.11 818.782 394.11V382.11ZM926.484 183.36L937.035 177.643C934.937 173.772 930.888 171.36 926.484 171.36C922.081 171.36 918.032 173.772 915.934 177.643L926.484 183.36ZM1034.19 382.11V394.11C1038.42 394.11 1042.33 391.884 1044.5 388.25C1046.66 384.616 1046.75 380.111 1044.74 376.393L1034.19 382.11ZM915.966 97.2526L742.466 415.253L763.534 426.747L937.034 108.747L915.966 97.2526ZM753 433H1100V409H753V433ZM1110.53 415.253L937.034 97.2526L915.966 108.747L1089.47 426.747L1110.53 415.253ZM829.333 387.828L937.035 189.078L915.934 177.643L808.232 376.393L829.333 387.828ZM915.934 189.078L1023.64 387.828L1044.74 376.393L937.035 177.643L915.934 189.078ZM1034.19 370.11H818.782V394.11H1034.19V370.11Z" fill="#C0C0C0"/>
<path d="M30.2734 95.4238H120.605C147.135 95.4238 168.376 102.016 184.326 115.199C200.439 128.22 208.496 147.914 208.496 174.281C208.496 193.161 203.776 209.275 194.336 222.621C184.896 235.967 170.654 246.628 151.611 254.604C178.467 257.045 198.568 265.183 211.914 279.018C225.423 292.689 232.178 312.058 232.178 337.123C232.178 356.329 228.19 372.849 220.215 386.684C212.24 400.355 200.277 411.993 184.326 421.596C168.538 431.199 149.414 436 126.953 436H30.2734V95.4238ZM63.2324 124.232V243.617H100.342C123.454 243.617 141.52 237.921 154.541 226.527C167.725 215.134 174.316 198.777 174.316 177.455C174.316 159.714 168.945 146.449 158.203 137.66C147.624 128.708 131.673 124.232 110.352 124.232H63.2324ZM63.2324 272.182V407.436H118.164C143.555 407.436 163.086 400.925 176.758 387.904C190.592 374.883 197.51 357.305 197.51 335.17C197.51 313.035 190.104 297.003 175.293 287.074C160.482 277.146 137.614 272.182 106.689 272.182H63.2324ZM278.076 95.4238H360.107C389.73 95.4238 413.493 102.26 431.396 115.932C449.463 129.441 458.496 150.111 458.496 177.943C458.496 198.939 452.799 217.169 441.406 232.631C430.176 247.93 412.598 259.486 388.672 267.299C405.111 271.531 417.236 278.855 425.049 289.271C433.024 299.525 439.046 314.662 443.115 334.682L463.135 436H427.734L414.307 353.969C409.912 327.927 402.507 309.128 392.09 297.572C381.836 286.016 366.943 280.238 347.412 280.238H310.547V436H278.076V95.4238ZM310.547 125.209V252.65H344.482C368.571 252.65 388.021 246.303 402.832 233.607C417.643 220.749 425.049 203.415 425.049 181.605C425.049 162.725 419.759 148.646 409.18 139.369C398.6 129.929 382.731 125.209 361.572 125.209H310.547ZM506.348 95.4238H671.631V124.232H539.307V244.105H664.307V272.426H539.307V407.68H671.631V436H506.348V95.4238Z" fill="black"/>
<path d="M1183.47 95.4238H1216.43V257.533L1325.32 95.4238H1364.62L1271.36 227.748L1373.9 436H1335.33L1252.07 257.533L1216.43 306.605V436H1183.47V95.4238ZM1467.41 95.4238H1500.12L1595.09 436H1557.98L1529.17 318.324H1438.6L1410.03 436H1373.66L1467.41 95.4238ZM1483.28 136.928L1445.43 290.736H1521.85L1483.28 136.928ZM1626.83 95.4238H1708.86C1738.48 95.4238 1762.25 102.26 1780.15 115.932C1798.22 129.441 1807.25 150.111 1807.25 177.943C1807.25 198.939 1801.55 217.169 1790.16 232.631C1778.93 247.93 1761.35 259.486 1737.43 267.299C1753.86 271.531 1765.99 278.855 1773.8 289.271C1781.78 299.525 1787.8 314.662 1791.87 334.682L1811.89 436H1776.49L1763.06 353.969C1758.67 327.927 1751.26 309.128 1740.84 297.572C1730.59 286.016 1715.7 280.238 1696.17 280.238H1659.3V436H1626.83V95.4238ZM1659.3 125.209V252.65H1693.24C1717.32 252.65 1736.77 246.303 1751.59 233.607C1766.4 220.749 1773.8 203.415 1773.8 181.605C1773.8 162.725 1768.51 148.646 1757.93 139.369C1747.35 129.929 1731.49 125.209 1710.33 125.209H1659.3ZM1838.01 370.57C1855.43 384.73 1869.51 394.496 1880.25 399.867C1891.15 405.076 1902.22 407.68 1913.45 407.68C1931.19 407.68 1946.98 401.332 1960.81 388.637C1974.81 375.941 1981.81 359.421 1981.81 339.076C1981.81 323.777 1977.25 311 1968.14 300.746C1958.86 290.655 1941.2 280.727 1915.16 270.961C1863.57 251.43 1837.77 221.807 1837.77 182.094C1837.77 156.54 1846.88 134.812 1865.11 116.908C1883.5 98.8418 1905.48 89.8086 1931.03 89.8086C1952.03 89.8086 1973.67 97.6211 1995.97 113.246V157.436C1981.81 144.252 1970.09 135.219 1960.81 130.336C1951.7 125.453 1942.02 123.012 1931.76 123.012C1914.67 123.012 1900.43 128.871 1889.04 140.59C1877.81 152.309 1872.19 165.899 1872.19 181.361C1872.19 196.986 1877.24 209.356 1887.33 218.471C1897.58 227.423 1916.06 237.351 1942.75 248.256C1958.86 254.766 1971.8 261.358 1981.57 268.031C1991.49 274.704 1999.71 284.145 2006.22 296.352C2012.9 308.559 2016.23 322.475 2016.23 338.1C2016.23 367.234 2006.14 391.729 1985.96 411.586C1965.78 431.443 1941.85 441.371 1914.18 441.371C1890.1 441.371 1864.7 432.012 1838.01 413.295V370.57Z" fill="black"/>
</svg>
